<svg id="visual" viewBox="0 0 900 600" width="900" height="600" xmlns="http://www.w3.org/2000/svg" xmlns:xlink="http://www.w3.org/1999/xlink" version="1.1"><g stroke-width="1" stroke-linejoin="bevel"><path d="M509.3 331L500.3 233L401.7 252Z" fill="#2886bb" stroke="#2886bb"></path><path d="M401.7 252L369.7 382L509.3 331Z" fill="#2579ac" stroke="#2579ac"></path><path d="M539.3 499L621.9 330L509.3 331Z" fill="#134a72" stroke="#134a72"></path><path d="M509.3 331L621.9 330L500.3 233Z" fill="#1d618e" stroke="#1d618e"></path><path d="M539.3 114L391.7 130L500.3 233Z" fill="#2ea1d9" stroke="#2ea1d9"></path><path d="M500.3 233L391.7 130L401.7 252Z" fill="#2ea1d9" stroke="#2ea1d9"></path><path d="M401.7 252L251.1 371L369.7 382Z" fill="#2c93ca" stroke="#2c93ca"></path><path d="M621.9 330L628.9 229L500.3 233Z" fill="#134a72" stroke="#134a72"></path><path d="M628.9 229L539.3 114L500.3 233Z" fill="#134a72" stroke="#134a72"></path><path d="M391.7 130L251.1 212L401.7 252Z" fill="#0e3f64" stroke="#0e3f64"></path><path d="M251.1 212L251.1 371L401.7 252Z" fill="#2c93ca" stroke="#2c93ca"></path><path d="M359.7 492L539.3 499L369.7 382Z" fill="#216d9d" stroke="#216d9d"></path><path d="M369.7 382L539.3 499L509.3 331Z" fill="#2c93ca" stroke="#2c93ca"></path><path d="M251.1 371L359.7 492L369.7 382Z" fill="#134a72" stroke="#134a72"></path><path d="M628.9 229L634.9 92L539.3 114Z" fill="#2ea1d9" stroke="#2ea1d9"></path><path d="M366.7 0L271.1 104L391.7 130Z" fill="#083456" stroke="#083456"></path><path d="M391.7 130L271.1 104L251.1 212Z" fill="#31aee8" stroke="#31aee8"></path><path d="M502.3 0L391.7 130L539.3 114Z" fill="#1d618e" stroke="#1d618e"></path><path d="M539.3 499L658.9 485L621.9 330Z" fill="#2c93ca" stroke="#2c93ca"></path><path d="M621.9 330L739.4 251L628.9 229Z" fill="#134a72" stroke="#134a72"></path><path d="M628.9 229L785.4 128L634.9 92Z" fill="#216d9d" stroke="#216d9d"></path><path d="M753.4 384L739.4 251L621.9 330Z" fill="#2579ac" stroke="#2579ac"></path><path d="M613.9 0L502.3 0L539.3 114Z" fill="#31aee8" stroke="#31aee8"></path><path d="M251.1 371L258.1 506L359.7 492Z" fill="#2886bb" stroke="#2886bb"></path><path d="M359.7 492L408.7 600L539.3 499Z" fill="#1d618e" stroke="#1d618e"></path><path d="M502.3 0L366.7 0L391.7 130Z" fill="#2c93ca" stroke="#2c93ca"></path><path d="M658.9 485L753.4 384L621.9 330Z" fill="#185580" stroke="#185580"></path><path d="M251.1 600L408.7 600L359.7 492Z" fill="#083456" stroke="#083456"></path><path d="M539.3 499L649.9 600L658.9 485Z" fill="#31aee8" stroke="#31aee8"></path><path d="M408.7 600L526.3 600L539.3 499Z" fill="#134a72" stroke="#134a72"></path><path d="M801.4 0L613.9 0L634.9 92Z" fill="#2579ac" stroke="#2579ac"></path><path d="M634.9 92L613.9 0L539.3 114Z" fill="#31aee8" stroke="#31aee8"></path><path d="M366.7 0L285.1 0L271.1 104Z" fill="#185580" stroke="#185580"></path><path d="M149.6 91L122.6 226L251.1 212Z" fill="#0e3f64" stroke="#0e3f64"></path><path d="M149.6 91L251.1 212L271.1 104Z" fill="#2ea1d9" stroke="#2ea1d9"></path><path d="M251.1 212L122.6 226L251.1 371Z" fill="#2579ac" stroke="#2579ac"></path><path d="M251.1 371L157.6 491L258.1 506Z" fill="#134a72" stroke="#134a72"></path><path d="M122.6 226L124.6 370L251.1 371Z" fill="#1d618e" stroke="#1d618e"></path><path d="M739.4 251L785.4 128L628.9 229Z" fill="#216d9d" stroke="#216d9d"></path><path d="M900 217L785.4 128L739.4 251Z" fill="#216d9d" stroke="#216d9d"></path><path d="M124.6 370L157.6 491L251.1 371Z" fill="#1d618e" stroke="#1d618e"></path><path d="M258.1 506L251.1 600L359.7 492Z" fill="#216d9d" stroke="#216d9d"></path><path d="M153.6 0L149.6 91L271.1 104Z" fill="#216d9d" stroke="#216d9d"></path><path d="M526.3 600L649.9 600L539.3 499Z" fill="#134a72" stroke="#134a72"></path><path d="M658.9 485L800.4 496L753.4 384Z" fill="#083456" stroke="#083456"></path><path d="M157.6 491L251.1 600L258.1 506Z" fill="#2579ac" stroke="#2579ac"></path><path d="M739.4 600L800.4 496L658.9 485Z" fill="#31aee8" stroke="#31aee8"></path><path d="M753.4 384L900 351L739.4 251Z" fill="#134a72" stroke="#134a72"></path><path d="M285.1 0L153.6 0L271.1 104Z" fill="#2886bb" stroke="#2886bb"></path><path d="M0 99L0 224L122.6 226Z" fill="#31aee8" stroke="#31aee8"></path><path d="M649.9 600L739.4 600L658.9 485Z" fill="#216d9d" stroke="#216d9d"></path><path d="M900 472L753.4 384L800.4 496Z" fill="#185580" stroke="#185580"></path><path d="M900 472L900 351L753.4 384Z" fill="#31aee8" stroke="#31aee8"></path><path d="M900 101L801.4 0L785.4 128Z" fill="#31aee8" stroke="#31aee8"></path><path d="M785.4 128L801.4 0L634.9 92Z" fill="#134a72" stroke="#134a72"></path><path d="M900 351L900 217L739.4 251Z" fill="#1d618e" stroke="#1d618e"></path><path d="M0 99L122.6 226L149.6 91Z" fill="#0e3f64" stroke="#0e3f64"></path><path d="M122.6 226L0 351L124.6 370Z" fill="#31aee8" stroke="#31aee8"></path><path d="M124.6 370L0 476L157.6 491Z" fill="#216d9d" stroke="#216d9d"></path><path d="M0 224L0 351L122.6 226Z" fill="#083456" stroke="#083456"></path><path d="M157.6 491L117.6 600L251.1 600Z" fill="#2c93ca" stroke="#2c93ca"></path><path d="M0 476L117.6 600L157.6 491Z" fill="#2c93ca" stroke="#2c93ca"></path><path d="M900 217L900 101L785.4 128Z" fill="#2579ac" stroke="#2579ac"></path><path d="M900 600L900 472L800.4 496Z" fill="#134a72" stroke="#134a72"></path><path d="M0 0L0 99L149.6 91Z" fill="#1d618e" stroke="#1d618e"></path><path d="M0 351L0 476L124.6 370Z" fill="#134a72" stroke="#134a72"></path><path d="M900 101L900 0L801.4 0Z" fill="#2c93ca" stroke="#2c93ca"></path><path d="M739.4 600L900 600L800.4 496Z" fill="#31aee8" stroke="#31aee8"></path><path d="M153.6 0L0 0L149.6 91Z" fill="#2c93ca" stroke="#2c93ca"></path><path d="M0 476L0 600L117.6 600Z" fill="#0e3f64" stroke="#0e3f64"></path></g></svg>